<?xml version="1.0" standalone="no"?>
<!DOCTYPE svg PUBLIC "-//W3C//DTD SVG 20010904//EN"
 "http://www.w3.org/TR/2001/REC-SVG-20010904/DTD/svg10.dtd">
<svg version="1.0" xmlns="http://www.w3.org/2000/svg"
 width="700.000000pt" height="525.000000pt" viewBox="0 0 700.000000 525.000000"
 preserveAspectRatio="xMidYMid meet">

<g transform="translate(0.000000,525.000000) scale(0.100000,-0.100000)"
fill="#000000" stroke="none">
<path d="M1519 4824 c-109 -33 -205 -131 -239 -244 -20 -64 -20 -90 -18 -1440
l3 -1375 27 -57 c53 -113 158 -195 277 -218 30 -6 218 -10 432 -10 l379 0 0
190 0 190 -375 0 -375 0 0 1305 0 1305 1870 0 1870 0 0 -1305 0 -1305 -375 0
-375 0 0 -191 0 -190 413 3 c403 3 413 4 469 26 81 33 160 108 200 190 l33 67
3 1375 c2 1350 2 1376 -18 1440 -35 115 -131 212 -243 245 -74 22 -3886 22
-3958 -1z"/>
<path d="M2945 1584 c-302 -454 -551 -830 -553 -835 -2 -5 453 -9 1108 -9 655
0 1110 4 1108 9 -6 17 -1103 1660 -1108 1660 -3 0 -252 -371 -555 -825z m767
-157 l208 -312 -210 -3 c-116 -1 -304 -1 -420 0 l-210 3 208 312 c114 172 209
312 212 312 3 0 98 -140 212 -312z"/>
</g>
</svg>
